ISO-10303-21;
HEADER;
/* Generated by software containing ST-Developer
 * from STEP Tools, Inc. (www.steptools.com) 
 */

FILE_DESCRIPTION(
/* description */ (''),
/* implementation_level */ '2;1');

FILE_NAME(
/* name */ 'NU80-tube.step',
/* time_stamp */ '2026-10-02T00:19:36+10:00',
/* author */ (''),
/* organization */ (''),
/* preprocessor_version */ 'ST-DEVELOPER v20.2',
/* originating_system */ 'Autodesk Translation Framework v15.15.0.0',
/* authorisation */ '');

FILE_SCHEMA (('AUTOMOTIVE_DESIGN { 1 0 10303 214 3 1 1 }'));
ENDSEC;

DATA;
#10=MECHANICAL_DESIGN_GEOMETRIC_PRESENTATION_REPRESENTATION('',(#13),#916);
#11=SHAPE_REPRESENTATION_RELATIONSHIP('SRR','None',#922,#12);
#12=ADVANCED_BREP_SHAPE_REPRESENTATION('',(#14),#915);
#13=STYLED_ITEM('',(#931),#14);
#14=MANIFOLD_SOLID_BREP('Body14',#460);
#15=FACE_BOUND('',#55,.T.);
#16=FACE_BOUND('',#56,.T.);
#17=FACE_BOUND('',#60,.T.);
#18=FACE_BOUND('',#61,.T.);
#19=FACE_BOUND('',#63,.T.);
#20=FACE_BOUND('',#64,.T.);
#21=FACE_BOUND('',#65,.T.);
#22=FACE_BOUND('',#66,.T.);
#23=FACE_BOUND('',#67,.T.);
#24=PLANE('',#469);
#25=PLANE('',#478);
#26=PLANE('',#483);
#27=PLANE('',#499);
#28=PLANE('',#500);
#29=PLANE('',#501);
#30=PLANE('',#508);
#31=FACE_OUTER_BOUND('',#51,.T.);
#32=FACE_OUTER_BOUND('',#52,.T.);
#33=FACE_OUTER_BOUND('',#53,.T.);
#34=FACE_OUTER_BOUND('',#54,.T.);
#35=FACE_OUTER_BOUND('',#57,.T.);
#36=FACE_OUTER_BOUND('',#58,.T.);
#37=FACE_OUTER_BOUND('',#59,.T.);
#38=FACE_OUTER_BOUND('',#62,.T.);
#39=FACE_OUTER_BOUND('',#68,.T.);
#40=FACE_OUTER_BOUND('',#69,.T.);
#41=FACE_OUTER_BOUND('',#70,.T.);
#42=FACE_OUTER_BOUND('',#71,.T.);
#43=FACE_OUTER_BOUND('',#72,.T.);
#44=FACE_OUTER_BOUND('',#73,.T.);
#45=FACE_OUTER_BOUND('',#74,.T.);
#46=FACE_OUTER_BOUND('',#75,.T.);
#47=FACE_OUTER_BOUND('',#76,.T.);
#48=FACE_OUTER_BOUND('',#77,.T.);
#49=FACE_OUTER_BOUND('',#78,.T.);
#50=FACE_OUTER_BOUND('',#79,.T.);
#51=EDGE_LOOP('',(#289,#290,#291,#292));
#52=EDGE_LOOP('',(#293,#294,#295,#296,#297,#298,#299,#300,#301,#302,#303,
#304,#305,#306,#307,#308));
#53=EDGE_LOOP('',(#309,#310,#311,#312,#313));
#54=EDGE_LOOP('',(#314,#315,#316,#317,#318,#319));
#55=EDGE_LOOP('',(#320));
#56=EDGE_LOOP('',(#321));
#57=EDGE_LOOP('',(#322,#323,#324,#325));
#58=EDGE_LOOP('',(#326,#327,#328,#329,#330));
#59=EDGE_LOOP('',(#331,#332,#333,#334,#335,#336));
#60=EDGE_LOOP('',(#337));
#61=EDGE_LOOP('',(#338));
#62=EDGE_LOOP('',(#339));
#63=EDGE_LOOP('',(#340));
#64=EDGE_LOOP('',(#341,#342));
#65=EDGE_LOOP('',(#343));
#66=EDGE_LOOP('',(#344));
#67=EDGE_LOOP('',(#345));
#68=EDGE_LOOP('',(#346,#347,#348,#349,#350,#351,#352,#353,#354,#355,#356,
#357,#358));
#69=EDGE_LOOP('',(#359,#360,#361,#362,#363,#364,#365,#366,#367,#368,#369,
#370,#371,#372));
#70=EDGE_LOOP('',(#373,#374,#375,#376,#377,#378,#379,#380,#381));
#71=EDGE_LOOP('',(#382,#383,#384));
#72=EDGE_LOOP('',(#385,#386,#387));
#73=EDGE_LOOP('',(#388,#389,#390,#391,#392,#393,#394,#395));
#74=EDGE_LOOP('',(#396,#397,#398,#399,#400,#401,#402,#403));
#75=EDGE_LOOP('',(#404,#405,#406,#407));
#76=EDGE_LOOP('',(#408,#409,#410,#411));
#77=EDGE_LOOP('',(#412,#413,#414,#415));
#78=EDGE_LOOP('',(#416,#417,#418,#419));
#79=EDGE_LOOP('',(#420,#421,#422,#423,#424,#425,#426));
#80=CIRCLE('',#463,3.);
#81=CIRCLE('',#465,8.00000011920929);
#82=CIRCLE('',#466,8.00000011920929);
#83=CIRCLE('',#468,3.);
#84=CIRCLE('',#470,23.);
#85=CIRCLE('',#471,11.5);
#86=CIRCLE('',#472,1.7);
#87=CIRCLE('',#473,1.7);
#88=CIRCLE('',#475,3.);
#89=CIRCLE('',#477,3.);
#90=CIRCLE('',#479,11.5);
#91=CIRCLE('',#480,23.);
#92=CIRCLE('',#481,1.7);
#93=CIRCLE('',#482,1.7);
#94=CIRCLE('',#484,23.);
#95=CIRCLE('',#485,1.7);
#96=CIRCLE('',#486,11.5);
#97=CIRCLE('',#487,11.5);
#98=CIRCLE('',#488,1.7);
#99=CIRCLE('',#489,1.7);
#100=CIRCLE('',#490,1.7);
#101=CIRCLE('',#492,6.15);
#102=CIRCLE('',#493,6.15);
#103=CIRCLE('',#494,6.15);
#104=CIRCLE('',#495,6.15);
#105=CIRCLE('',#497,23.);
#106=CIRCLE('',#498,23.);
#107=LINE('',#651,#132);
#108=LINE('',#654,#133);
#109=LINE('',#691,#134);
#110=LINE('',#725,#135);
#111=LINE('',#728,#136);
#112=LINE('',#730,#137);
#113=LINE('',#753,#138);
#114=LINE('',#762,#139);
#115=LINE('',#764,#140);
#116=LINE('',#791,#141);
#117=LINE('',#802,#142);
#118=LINE('',#825,#143);
#119=LINE('',#826,#144);
#120=LINE('',#847,#145);
#121=LINE('',#851,#146);
#122=LINE('',#874,#147);
#123=LINE('',#890,#148);
#124=LINE('',#892,#149);
#125=LINE('',#896,#150);
#126=LINE('',#898,#151);
#127=LINE('',#899,#152);
#128=LINE('',#905,#153);
#129=LINE('',#907,#154);
#130=LINE('',#909,#155);
#131=LINE('',#911,#156);
#132=VECTOR('',#513,10.);
#133=VECTOR('',#516,10.);
#134=VECTOR('',#519,8.00000011920929);
#135=VECTOR('',#520,10.);
#136=VECTOR('',#523,10.);
#137=VECTOR('',#524,10.);
#138=VECTOR('',#531,10.);
#139=VECTOR('',#534,10.);
#140=VECTOR('',#535,10.);
#141=VECTOR('',#548,10.);
#142=VECTOR('',#551,10.);
#143=VECTOR('',#560,10.);
#144=VECTOR('',#561,10.);
#145=VECTOR('',#584,10.);
#146=VECTOR('',#587,6.15);
#147=VECTOR('',#594,10.);
#148=VECTOR('',#597,23.);
#149=VECTOR('',#598,10.);
#150=VECTOR('',#603,10.);
#151=VECTOR('',#606,10.);
#152=VECTOR('',#607,10.);
#153=VECTOR('',#618,1.7);
#154=VECTOR('',#621,1.7);
#155=VECTOR('',#624,1.7);
#156=VECTOR('',#627,1.7);
#157=B_SPLINE_CURVE_WITH_KNOTS('',3,(#634,#635,#636,#637,#638,#639,#640,
#641,#642,#643,#644,#645,#646,#647,#648,#649),.UNSPECIFIED.,.F.,.F.,(4,
2,2,2,2,2,2,4),(1.01862652953083,1.06752179511992,1.25671939166111,1.44591698820229,
1.52483224453855,1.60374750087481,1.66409339742775,1.72443929398069),
 .UNSPECIFIED.);
#158=B_SPLINE_CURVE_WITH_KNOTS('',3,(#657,#658,#659,#660),.UNSPECIFIED.,
 .F.,.F.,(4,4),(5.04710769244379,5.35240902826048),.UNSPECIFIED.);
#159=B_SPLINE_CURVE_WITH_KNOTS('',3,(#662,#663,#664,#665,#666,#667,#668,
#669,#670,#671),.UNSPECIFIED.,.F.,.F.,(4,2,2,2,4),(3.7853307473885,4.09858359413914,
4.41183644088978,4.72947205203723,4.74180629810887),.UNSPECIFIED.);
#160=B_SPLINE_CURVE_WITH_KNOTS('',3,(#673,#674,#675,#676,#677,#678,#679,
#680,#681,#682,#683,#684),.UNSPECIFIED.,.F.,.F.,(4,2,2,2,2,4),(1.27169137439856,
1.32884997156558,1.41573185031787,1.65131793783896,1.96646197962876,2.21825246651653),
 .UNSPECIFIED.);
#161=B_SPLINE_CURVE_WITH_KNOTS('',3,(#686,#687,#688,#689),.UNSPECIFIED.,
 .F.,.F.,(4,4),(2.21825246651653,2.52355380233323),.UNSPECIFIED.);
#162=B_SPLINE_CURVE_WITH_KNOTS('',3,(#693,#694,#695,#696),.UNSPECIFIED.,
 .F.,.F.,(4,4),(2.52355386085145,2.82885519666814),.UNSPECIFIED.);
#163=B_SPLINE_CURVE_WITH_KNOTS('',3,(#698,#699,#700,#701,#702,#703,#704,
#705,#706,#707),.UNSPECIFIED.,.F.,.F.,(4,2,2,2,4),(1.26177691579617,1.57502976254681,
1.88828260929745,2.20591822044489,2.21825246651653),.UNSPECIFIED.);
#164=B_SPLINE_CURVE_WITH_KNOTS('',3,(#709,#710,#711,#712,#713,#714,#715,
#716,#717,#718),.UNSPECIFIED.,.F.,.F.,(4,2,2,2,4),(0.305301365075807,0.317635611147445,
0.635271222294889,0.948524069045529,1.26177691579617),.UNSPECIFIED.);
#165=B_SPLINE_CURVE_WITH_KNOTS('',3,(#720,#721,#722,#723),.UNSPECIFIED.,
 .F.,.F.,(4,4),(4.74180629810887,5.04710766318467),.UNSPECIFIED.);
#166=B_SPLINE_CURVE_WITH_KNOTS('',3,(#736,#737,#738,#739,#740,#741,#742,
#743,#744,#745,#746,#747,#748,#749,#750,#751),.UNSPECIFIED.,.F.,.F.,(4,
2,2,2,2,2,2,4),(1.72443927203636,1.7847851685893,1.84513106514224,1.9240463214785,
2.00296157781476,2.19215917435594,2.38135677089713,2.43025203648622),
 .UNSPECIFIED.);
#167=B_SPLINE_CURVE_WITH_KNOTS('',3,(#754,#755,#756,#757,#758,#759),
 .UNSPECIFIED.,.F.,.F.,(4,2,4),(1.46648320004807,1.59242197954576,1.64662892563992),
 .UNSPECIFIED.);
#168=B_SPLINE_CURVE_WITH_KNOTS('',3,(#775,#776,#777,#778,#779,#780,#781,
#782,#783,#784,#785,#786,#787,#788,#789,#790),.UNSPECIFIED.,.F.,.F.,(4,
2,2,2,2,2,2,4),(1.72443927203636,1.7847851685893,1.84513106514224,1.9240463214785,
2.00296157781476,2.19215917435594,2.38135677089713,2.43025203648622),
 .UNSPECIFIED.);
#169=B_SPLINE_CURVE_WITH_KNOTS('',3,(#795,#796,#797,#798,#799,#800),
 .UNSPECIFIED.,.F.,.F.,(4,2,4),(0.295875292542724,0.350082238636874,0.476021018134573),
 .UNSPECIFIED.);
#170=B_SPLINE_CURVE_WITH_KNOTS('',3,(#803,#804,#805,#806,#807,#808,#809,
#810,#811,#812,#813,#814,#815,#816,#817,#818),.UNSPECIFIED.,.F.,.F.,(4,
2,2,2,2,2,2,4),(1.01862652953083,1.06752179511992,1.25671939166111,1.44591698820229,
1.52483224453855,1.60374750087481,1.66409339742775,1.72443929398069),
 .UNSPECIFIED.);
#171=B_SPLINE_CURVE_WITH_KNOTS('',3,(#854,#855,#856,#857,#858,#859,#860,
#861),.UNSPECIFIED.,.F.,.F.,(4,2,2,4),(2.79466350944539,3.02753063809356,
3.26039776674173,3.42563813761909),.UNSPECIFIED.);
#172=B_SPLINE_CURVE_WITH_KNOTS('',3,(#862,#863,#864,#865,#866,#867,#868,
#869),.UNSPECIFIED.,.F.,.F.,(4,2,2,4),(2.16368888127169,2.32892925214904,
2.56179638079722,2.79466350944539),.UNSPECIFIED.);
#173=B_SPLINE_CURVE_WITH_KNOTS('',3,(#875,#876,#877,#878,#879,#880,#881,
#882,#883,#884,#885,#886,#887,#888),.UNSPECIFIED.,.F.,.F.,(4,2,2,2,2,2,
4),(0.30057987497476,0.465820245852119,0.698687374500291,0.931554503148463,
1.16442163179663,1.39728876044481,1.56252913132217),.UNSPECIFIED.);
#174=VERTEX_POINT('',#632);
#175=VERTEX_POINT('',#633);
#176=VERTEX_POINT('',#650);
#177=VERTEX_POINT('',#652);
#178=VERTEX_POINT('',#656);
#179=VERTEX_POINT('',#661);
#180=VERTEX_POINT('',#672);
#181=VERTEX_POINT('',#685);
#182=VERTEX_POINT('',#690);
#183=VERTEX_POINT('',#692);
#184=VERTEX_POINT('',#697);
#185=VERTEX_POINT('',#708);
#186=VERTEX_POINT('',#719);
#187=VERTEX_POINT('',#724);
#188=VERTEX_POINT('',#726);
#189=VERTEX_POINT('',#729);
#190=VERTEX_POINT('',#733);
#191=VERTEX_POINT('',#735);
#192=VERTEX_POINT('',#752);
#193=VERTEX_POINT('',#761);
#194=VERTEX_POINT('',#763);
#195=VERTEX_POINT('',#767);
#196=VERTEX_POINT('',#769);
#197=VERTEX_POINT('',#772);
#198=VERTEX_POINT('',#774);
#199=VERTEX_POINT('',#793);
#200=VERTEX_POINT('',#794);
#201=VERTEX_POINT('',#801);
#202=VERTEX_POINT('',#822);
#203=VERTEX_POINT('',#824);
#204=VERTEX_POINT('',#827);
#205=VERTEX_POINT('',#829);
#206=VERTEX_POINT('',#832);
#207=VERTEX_POINT('',#834);
#208=VERTEX_POINT('',#838);
#209=VERTEX_POINT('',#840);
#210=VERTEX_POINT('',#842);
#211=VERTEX_POINT('',#845);
#212=VERTEX_POINT('',#846);
#213=VERTEX_POINT('',#848);
#214=VERTEX_POINT('',#850);
#215=VERTEX_POINT('',#853);
#216=VERTEX_POINT('',#871);
#217=VERTEX_POINT('',#873);
#218=VERTEX_POINT('',#891);
#219=VERTEX_POINT('',#894);
#220=EDGE_CURVE('',#174,#175,#157,.T.);
#221=EDGE_CURVE('',#175,#176,#107,.T.);
#222=EDGE_CURVE('',#176,#177,#80,.T.);
#223=EDGE_CURVE('',#177,#174,#108,.T.);
#224=EDGE_CURVE('',#175,#178,#158,.T.);
#225=EDGE_CURVE('',#179,#178,#159,.T.);
#226=EDGE_CURVE('',#179,#180,#160,.T.);
#227=EDGE_CURVE('',#180,#181,#161,.T.);
#228=EDGE_CURVE('',#181,#182,#109,.T.);
#229=EDGE_CURVE('',#182,#183,#162,.T.);
#230=EDGE_CURVE('',#184,#183,#163,.T.);
#231=EDGE_CURVE('',#185,#184,#164,.T.);
#232=EDGE_CURVE('',#185,#186,#165,.T.);
#233=EDGE_CURVE('',#187,#186,#110,.T.);
#234=EDGE_CURVE('',#188,#187,#81,.T.);
#235=EDGE_CURVE('',#182,#188,#111,.T.);
#236=EDGE_CURVE('',#189,#181,#112,.T.);
#237=EDGE_CURVE('',#176,#189,#82,.T.);
#238=EDGE_CURVE('',#187,#190,#83,.F.);
#239=EDGE_CURVE('',#186,#191,#166,.T.);
#240=EDGE_CURVE('',#191,#192,#113,.T.);
#241=EDGE_CURVE('',#192,#190,#167,.T.);
#242=EDGE_CURVE('',#177,#193,#114,.T.);
#243=EDGE_CURVE('',#193,#194,#115,.T.);
#244=EDGE_CURVE('',#194,#192,#84,.T.);
#245=EDGE_CURVE('',#191,#174,#85,.T.);
#246=EDGE_CURVE('',#195,#195,#86,.T.);
#247=EDGE_CURVE('',#196,#196,#87,.T.);
#248=EDGE_CURVE('',#197,#189,#88,.T.);
#249=EDGE_CURVE('',#181,#198,#168,.T.);
#250=EDGE_CURVE('',#198,#197,#116,.T.);
#251=EDGE_CURVE('',#199,#200,#169,.F.);
#252=EDGE_CURVE('',#199,#201,#117,.T.);
#253=EDGE_CURVE('',#201,#182,#170,.T.);
#254=EDGE_CURVE('',#188,#200,#89,.T.);
#255=EDGE_CURVE('',#198,#201,#90,.T.);
#256=EDGE_CURVE('',#199,#202,#91,.T.);
#257=EDGE_CURVE('',#202,#203,#118,.T.);
#258=EDGE_CURVE('',#203,#197,#119,.T.);
#259=EDGE_CURVE('',#204,#204,#92,.T.);
#260=EDGE_CURVE('',#205,#205,#93,.T.);
#261=EDGE_CURVE('',#206,#206,#94,.T.);
#262=EDGE_CURVE('',#207,#207,#95,.T.);
#263=EDGE_CURVE('',#179,#184,#96,.T.);
#264=EDGE_CURVE('',#184,#179,#97,.T.);
#265=EDGE_CURVE('',#208,#208,#98,.T.);
#266=EDGE_CURVE('',#209,#209,#99,.T.);
#267=EDGE_CURVE('',#210,#210,#100,.T.);
#268=EDGE_CURVE('',#211,#212,#120,.T.);
#269=EDGE_CURVE('',#213,#211,#101,.T.);
#270=EDGE_CURVE('',#213,#214,#121,.T.);
#271=EDGE_CURVE('',#203,#214,#102,.T.);
#272=EDGE_CURVE('',#215,#202,#171,.T.);
#273=EDGE_CURVE('',#194,#215,#172,.T.);
#274=EDGE_CURVE('',#214,#193,#103,.T.);
#275=EDGE_CURVE('',#216,#213,#104,.T.);
#276=EDGE_CURVE('',#217,#216,#122,.T.);
#277=EDGE_CURVE('',#212,#217,#173,.T.);
#278=EDGE_CURVE('',#206,#215,#123,.T.);
#279=EDGE_CURVE('',#200,#218,#124,.F.);
#280=EDGE_CURVE('',#212,#218,#105,.T.);
#281=EDGE_CURVE('',#219,#217,#106,.T.);
#282=EDGE_CURVE('',#190,#219,#125,.T.);
#283=EDGE_CURVE('',#218,#211,#126,.T.);
#284=EDGE_CURVE('',#216,#219,#127,.T.);
#285=EDGE_CURVE('',#205,#207,#128,.T.);
#286=EDGE_CURVE('',#195,#209,#129,.T.);
#287=EDGE_CURVE('',#204,#208,#130,.T.);
#288=EDGE_CURVE('',#196,#210,#131,.T.);
#289=ORIENTED_EDGE('',*,*,#220,.T.);
#290=ORIENTED_EDGE('',*,*,#221,.T.);
#291=ORIENTED_EDGE('',*,*,#222,.T.);
#292=ORIENTED_EDGE('',*,*,#223,.T.);
#293=ORIENTED_EDGE('',*,*,#221,.F.);
#294=ORIENTED_EDGE('',*,*,#224,.T.);
#295=ORIENTED_EDGE('',*,*,#225,.F.);
#296=ORIENTED_EDGE('',*,*,#226,.T.);
#297=ORIENTED_EDGE('',*,*,#227,.T.);
#298=ORIENTED_EDGE('',*,*,#228,.T.);
#299=ORIENTED_EDGE('',*,*,#229,.T.);
#300=ORIENTED_EDGE('',*,*,#230,.F.);
#301=ORIENTED_EDGE('',*,*,#231,.F.);
#302=ORIENTED_EDGE('',*,*,#232,.T.);
#303=ORIENTED_EDGE('',*,*,#233,.F.);
#304=ORIENTED_EDGE('',*,*,#234,.F.);
#305=ORIENTED_EDGE('',*,*,#235,.F.);
#306=ORIENTED_EDGE('',*,*,#228,.F.);
#307=ORIENTED_EDGE('',*,*,#236,.F.);
#308=ORIENTED_EDGE('',*,*,#237,.F.);
#309=ORIENTED_EDGE('',*,*,#238,.F.);
#310=ORIENTED_EDGE('',*,*,#233,.T.);
#311=ORIENTED_EDGE('',*,*,#239,.T.);
#312=ORIENTED_EDGE('',*,*,#240,.T.);
#313=ORIENTED_EDGE('',*,*,#241,.T.);
#314=ORIENTED_EDGE('',*,*,#242,.T.);
#315=ORIENTED_EDGE('',*,*,#243,.T.);
#316=ORIENTED_EDGE('',*,*,#244,.T.);
#317=ORIENTED_EDGE('',*,*,#240,.F.);
#318=ORIENTED_EDGE('',*,*,#245,.T.);
#319=ORIENTED_EDGE('',*,*,#223,.F.);
#320=ORIENTED_EDGE('',*,*,#246,.T.);
#321=ORIENTED_EDGE('',*,*,#247,.T.);
#322=ORIENTED_EDGE('',*,*,#248,.T.);
#323=ORIENTED_EDGE('',*,*,#236,.T.);
#324=ORIENTED_EDGE('',*,*,#249,.T.);
#325=ORIENTED_EDGE('',*,*,#250,.T.);
#326=ORIENTED_EDGE('',*,*,#251,.F.);
#327=ORIENTED_EDGE('',*,*,#252,.T.);
#328=ORIENTED_EDGE('',*,*,#253,.T.);
#329=ORIENTED_EDGE('',*,*,#235,.T.);
#330=ORIENTED_EDGE('',*,*,#254,.T.);
#331=ORIENTED_EDGE('',*,*,#250,.F.);
#332=ORIENTED_EDGE('',*,*,#255,.T.);
#333=ORIENTED_EDGE('',*,*,#252,.F.);
#334=ORIENTED_EDGE('',*,*,#256,.T.);
#335=ORIENTED_EDGE('',*,*,#257,.T.);
#336=ORIENTED_EDGE('',*,*,#258,.T.);
#337=ORIENTED_EDGE('',*,*,#259,.T.);
#338=ORIENTED_EDGE('',*,*,#260,.T.);
#339=ORIENTED_EDGE('',*,*,#261,.T.);
#340=ORIENTED_EDGE('',*,*,#262,.T.);
#341=ORIENTED_EDGE('',*,*,#263,.F.);
#342=ORIENTED_EDGE('',*,*,#264,.F.);
#343=ORIENTED_EDGE('',*,*,#265,.T.);
#344=ORIENTED_EDGE('',*,*,#266,.T.);
#345=ORIENTED_EDGE('',*,*,#267,.T.);
#346=ORIENTED_EDGE('',*,*,#268,.F.);
#347=ORIENTED_EDGE('',*,*,#269,.F.);
#348=ORIENTED_EDGE('',*,*,#270,.T.);
#349=ORIENTED_EDGE('',*,*,#271,.F.);
#350=ORIENTED_EDGE('',*,*,#257,.F.);
#351=ORIENTED_EDGE('',*,*,#272,.F.);
#352=ORIENTED_EDGE('',*,*,#273,.F.);
#353=ORIENTED_EDGE('',*,*,#243,.F.);
#354=ORIENTED_EDGE('',*,*,#274,.F.);
#355=ORIENTED_EDGE('',*,*,#270,.F.);
#356=ORIENTED_EDGE('',*,*,#275,.F.);
#357=ORIENTED_EDGE('',*,*,#276,.F.);
#358=ORIENTED_EDGE('',*,*,#277,.F.);
#359=ORIENTED_EDGE('',*,*,#261,.F.);
#360=ORIENTED_EDGE('',*,*,#278,.T.);
#361=ORIENTED_EDGE('',*,*,#272,.T.);
#362=ORIENTED_EDGE('',*,*,#256,.F.);
#363=ORIENTED_EDGE('',*,*,#251,.T.);
#364=ORIENTED_EDGE('',*,*,#279,.T.);
#365=ORIENTED_EDGE('',*,*,#280,.F.);
#366=ORIENTED_EDGE('',*,*,#277,.T.);
#367=ORIENTED_EDGE('',*,*,#281,.F.);
#368=ORIENTED_EDGE('',*,*,#282,.F.);
#369=ORIENTED_EDGE('',*,*,#241,.F.);
#370=ORIENTED_EDGE('',*,*,#244,.F.);
#371=ORIENTED_EDGE('',*,*,#273,.T.);
#372=ORIENTED_EDGE('',*,*,#278,.F.);
#373=ORIENTED_EDGE('',*,*,#275,.T.);
#374=ORIENTED_EDGE('',*,*,#269,.T.);
#375=ORIENTED_EDGE('',*,*,#283,.F.);
#376=ORIENTED_EDGE('',*,*,#279,.F.);
#377=ORIENTED_EDGE('',*,*,#254,.F.);
#378=ORIENTED_EDGE('',*,*,#234,.T.);
#379=ORIENTED_EDGE('',*,*,#238,.T.);
#380=ORIENTED_EDGE('',*,*,#282,.T.);
#381=ORIENTED_EDGE('',*,*,#284,.F.);
#382=ORIENTED_EDGE('',*,*,#283,.T.);
#383=ORIENTED_EDGE('',*,*,#268,.T.);
#384=ORIENTED_EDGE('',*,*,#280,.T.);
#385=ORIENTED_EDGE('',*,*,#284,.T.);
#386=ORIENTED_EDGE('',*,*,#281,.T.);
#387=ORIENTED_EDGE('',*,*,#276,.T.);
#388=ORIENTED_EDGE('',*,*,#226,.F.);
#389=ORIENTED_EDGE('',*,*,#263,.T.);
#390=ORIENTED_EDGE('',*,*,#230,.T.);
#391=ORIENTED_EDGE('',*,*,#229,.F.);
#392=ORIENTED_EDGE('',*,*,#253,.F.);
#393=ORIENTED_EDGE('',*,*,#255,.F.);
#394=ORIENTED_EDGE('',*,*,#249,.F.);
#395=ORIENTED_EDGE('',*,*,#227,.F.);
#396=ORIENTED_EDGE('',*,*,#231,.T.);
#397=ORIENTED_EDGE('',*,*,#264,.T.);
#398=ORIENTED_EDGE('',*,*,#225,.T.);
#399=ORIENTED_EDGE('',*,*,#224,.F.);
#400=ORIENTED_EDGE('',*,*,#220,.F.);
#401=ORIENTED_EDGE('',*,*,#245,.F.);
#402=ORIENTED_EDGE('',*,*,#239,.F.);
#403=ORIENTED_EDGE('',*,*,#232,.F.);
#404=ORIENTED_EDGE('',*,*,#260,.F.);
#405=ORIENTED_EDGE('',*,*,#285,.T.);
#406=ORIENTED_EDGE('',*,*,#262,.F.);
#407=ORIENTED_EDGE('',*,*,#285,.F.);
#408=ORIENTED_EDGE('',*,*,#246,.F.);
#409=ORIENTED_EDGE('',*,*,#286,.T.);
#410=ORIENTED_EDGE('',*,*,#266,.F.);
#411=ORIENTED_EDGE('',*,*,#286,.F.);
#412=ORIENTED_EDGE('',*,*,#259,.F.);
#413=ORIENTED_EDGE('',*,*,#287,.T.);
#414=ORIENTED_EDGE('',*,*,#265,.F.);
#415=ORIENTED_EDGE('',*,*,#287,.F.);
#416=ORIENTED_EDGE('',*,*,#247,.F.);
#417=ORIENTED_EDGE('',*,*,#288,.T.);
#418=ORIENTED_EDGE('',*,*,#267,.F.);
#419=ORIENTED_EDGE('',*,*,#288,.F.);
#420=ORIENTED_EDGE('',*,*,#271,.T.);
#421=ORIENTED_EDGE('',*,*,#274,.T.);
#422=ORIENTED_EDGE('',*,*,#242,.F.);
#423=ORIENTED_EDGE('',*,*,#222,.F.);
#424=ORIENTED_EDGE('',*,*,#237,.T.);
#425=ORIENTED_EDGE('',*,*,#248,.F.);
#426=ORIENTED_EDGE('',*,*,#258,.F.);
#427=CYLINDRICAL_SURFACE('',#462,3.);
#428=CYLINDRICAL_SURFACE('',#464,8.00000011920929);
#429=CYLINDRICAL_SURFACE('',#467,3.);
#430=CYLINDRICAL_SURFACE('',#474,3.);
#431=CYLINDRICAL_SURFACE('',#476,3.);
#432=CYLINDRICAL_SURFACE('',#491,6.15);
#433=CYLINDRICAL_SURFACE('',#496,23.);
#434=CYLINDRICAL_SURFACE('',#502,11.5);
#435=CYLINDRICAL_SURFACE('',#503,11.5);
#436=CYLINDRICAL_SURFACE('',#504,1.7);
#437=CYLINDRICAL_SURFACE('',#505,1.7);
#438=CYLINDRICAL_SURFACE('',#506,1.7);
#439=CYLINDRICAL_SURFACE('',#507,1.7);
#440=ADVANCED_FACE('',(#31),#427,.F.);
#441=ADVANCED_FACE('',(#32),#428,.T.);
#442=ADVANCED_FACE('',(#33),#429,.F.);
#443=ADVANCED_FACE('',(#34,#15,#16),#24,.T.);
#444=ADVANCED_FACE('',(#35),#430,.F.);
#445=ADVANCED_FACE('',(#36),#431,.F.);
#446=ADVANCED_FACE('',(#37,#17,#18),#25,.T.);
#447=ADVANCED_FACE('',(#38,#19,#20,#21,#22,#23),#26,.F.);
#448=ADVANCED_FACE('',(#39),#432,.F.);
#449=ADVANCED_FACE('',(#40),#433,.T.);
#450=ADVANCED_FACE('',(#41),#27,.F.);
#451=ADVANCED_FACE('',(#42),#28,.T.);
#452=ADVANCED_FACE('',(#43),#29,.T.);
#453=ADVANCED_FACE('',(#44),#434,.F.);
#454=ADVANCED_FACE('',(#45),#435,.F.);
#455=ADVANCED_FACE('',(#46),#436,.F.);
#456=ADVANCED_FACE('',(#47),#437,.F.);
#457=ADVANCED_FACE('',(#48),#438,.F.);
#458=ADVANCED_FACE('',(#49),#439,.F.);
#459=ADVANCED_FACE('',(#50),#30,.T.);
#460=CLOSED_SHELL('',(#440,#441,#442,#443,#444,#445,#446,#447,#448,#449,
#450,#451,#452,#453,#454,#455,#456,#457,#458,#459));
#461=AXIS2_PLACEMENT_3D('',#630,#509,#510);
#462=AXIS2_PLACEMENT_3D('',#631,#511,#512);
#463=AXIS2_PLACEMENT_3D('',#653,#514,#515);
#464=AXIS2_PLACEMENT_3D('',#655,#517,#518);
#465=AXIS2_PLACEMENT_3D('',#727,#521,#522);
#466=AXIS2_PLACEMENT_3D('',#731,#525,#526);
#467=AXIS2_PLACEMENT_3D('',#732,#527,#528);
#468=AXIS2_PLACEMENT_3D('',#734,#529,#530);
#469=AXIS2_PLACEMENT_3D('',#760,#532,#533);
#470=AXIS2_PLACEMENT_3D('',#765,#536,#537);
#471=AXIS2_PLACEMENT_3D('',#766,#538,#539);
#472=AXIS2_PLACEMENT_3D('',#768,#540,#541);
#473=AXIS2_PLACEMENT_3D('',#770,#542,#543);
#474=AXIS2_PLACEMENT_3D('',#771,#544,#545);
#475=AXIS2_PLACEMENT_3D('',#773,#546,#547);
#476=AXIS2_PLACEMENT_3D('',#792,#549,#550);
#477=AXIS2_PLACEMENT_3D('',#819,#552,#553);
#478=AXIS2_PLACEMENT_3D('',#820,#554,#555);
#479=AXIS2_PLACEMENT_3D('',#821,#556,#557);
#480=AXIS2_PLACEMENT_3D('',#823,#558,#559);
#481=AXIS2_PLACEMENT_3D('',#828,#562,#563);
#482=AXIS2_PLACEMENT_3D('',#830,#564,#565);
#483=AXIS2_PLACEMENT_3D('',#831,#566,#567);
#484=AXIS2_PLACEMENT_3D('',#833,#568,#569);
#485=AXIS2_PLACEMENT_3D('',#835,#570,#571);
#486=AXIS2_PLACEMENT_3D('',#836,#572,#573);
#487=AXIS2_PLACEMENT_3D('',#837,#574,#575);
#488=AXIS2_PLACEMENT_3D('',#839,#576,#577);
#489=AXIS2_PLACEMENT_3D('',#841,#578,#579);
#490=AXIS2_PLACEMENT_3D('',#843,#580,#581);
#491=AXIS2_PLACEMENT_3D('',#844,#582,#583);
#492=AXIS2_PLACEMENT_3D('',#849,#585,#586);
#493=AXIS2_PLACEMENT_3D('',#852,#588,#589);
#494=AXIS2_PLACEMENT_3D('',#870,#590,#591);
#495=AXIS2_PLACEMENT_3D('',#872,#592,#593);
#496=AXIS2_PLACEMENT_3D('',#889,#595,#596);
#497=AXIS2_PLACEMENT_3D('',#893,#599,#600);
#498=AXIS2_PLACEMENT_3D('',#895,#601,#602);
#499=AXIS2_PLACEMENT_3D('',#897,#604,#605);
#500=AXIS2_PLACEMENT_3D('',#900,#608,#609);
#501=AXIS2_PLACEMENT_3D('',#901,#610,#611);
#502=AXIS2_PLACEMENT_3D('',#902,#612,#613);
#503=AXIS2_PLACEMENT_3D('',#903,#614,#615);
#504=AXIS2_PLACEMENT_3D('',#904,#616,#617);
#505=AXIS2_PLACEMENT_3D('',#906,#619,#620);
#506=AXIS2_PLACEMENT_3D('',#908,#622,#623);
#507=AXIS2_PLACEMENT_3D('',#910,#625,#626);
#508=AXIS2_PLACEMENT_3D('',#912,#628,#629);
#509=DIRECTION('axis',(0.,0.,1.));
#510=DIRECTION('refdir',(1.,0.,0.));
#511=DIRECTION('center_axis',(1.,0.,0.));
#512=DIRECTION('ref_axis',(0.,-0.70710679411737,-0.707106768255725));
#513=DIRECTION('',(1.,0.,0.));
#514=DIRECTION('center_axis',(1.,0.,0.));
#515=DIRECTION('ref_axis',(0.,-0.70710679411737,-0.707106768255725));
#516=DIRECTION('',(-1.,0.,0.));
#517=DIRECTION('center_axis',(1.,0.,0.));
#518=DIRECTION('ref_axis',(0.,1.,0.));
#519=DIRECTION('',(-1.,0.,0.));
#520=DIRECTION('',(1.,0.,0.));
#521=DIRECTION('center_axis',(-1.,0.,0.));
#522=DIRECTION('ref_axis',(0.,1.,0.));
#523=DIRECTION('',(-1.,0.,0.));
#524=DIRECTION('',(-1.,0.,0.));
#525=DIRECTION('center_axis',(1.,0.,0.));
#526=DIRECTION('ref_axis',(0.,1.,0.));
#527=DIRECTION('center_axis',(1.,0.,0.));
#528=DIRECTION('ref_axis',(0.,-0.70710679411737,-0.707106768255725));
#529=DIRECTION('center_axis',(-1.,0.,0.));
#530=DIRECTION('ref_axis',(0.,-0.70710679411737,-0.707106768255725));
#531=DIRECTION('',(-1.,0.,0.));
#532=DIRECTION('center_axis',(0.,0.,1.));
#533=DIRECTION('ref_axis',(-1.,0.,0.));
#534=DIRECTION('',(0.,-1.,0.));
#535=DIRECTION('',(1.,0.,0.));
#536=DIRECTION('center_axis',(0.,0.,1.));
#537=DIRECTION('ref_axis',(-1.,0.,0.));
#538=DIRECTION('center_axis',(0.,0.,-1.));
#539=DIRECTION('ref_axis',(-1.,0.,0.));
#540=DIRECTION('center_axis',(0.,0.,-1.));
#541=DIRECTION('ref_axis',(-1.,0.,0.));
#542=DIRECTION('center_axis',(0.,0.,-1.));
#543=DIRECTION('ref_axis',(-1.,0.,0.));
#544=DIRECTION('center_axis',(-1.,0.,0.));
#545=DIRECTION('ref_axis',(0.,0.70710679411737,-0.707106768255725));
#546=DIRECTION('center_axis',(1.,0.,0.));
#547=DIRECTION('ref_axis',(0.,0.70710679411737,-0.707106768255725));
#548=DIRECTION('',(1.,0.,0.));
#549=DIRECTION('center_axis',(-1.,0.,0.));
#550=DIRECTION('ref_axis',(0.,0.70710679411737,-0.707106768255725));
#551=DIRECTION('',(1.,0.,0.));
#552=DIRECTION('center_axis',(-1.,0.,0.));
#553=DIRECTION('ref_axis',(0.,0.70710679411737,-0.707106768255725));
#554=DIRECTION('center_axis',(0.,0.,1.));
#555=DIRECTION('ref_axis',(-1.,0.,0.));
#556=DIRECTION('center_axis',(0.,0.,-1.));
#557=DIRECTION('ref_axis',(-1.,0.,0.));
#558=DIRECTION('center_axis',(0.,0.,1.));
#559=DIRECTION('ref_axis',(-1.,0.,0.));
#560=DIRECTION('',(-1.,0.,0.));
#561=DIRECTION('',(0.,-1.,0.));
#562=DIRECTION('center_axis',(0.,0.,-1.));
#563=DIRECTION('ref_axis',(-1.,0.,0.));
#564=DIRECTION('center_axis',(0.,0.,-1.));
#565=DIRECTION('ref_axis',(-1.,0.,0.));
#566=DIRECTION('center_axis',(0.,0.,1.));
#567=DIRECTION('ref_axis',(-1.,0.,0.));
#568=DIRECTION('center_axis',(0.,0.,-1.));
#569=DIRECTION('ref_axis',(-1.,0.,0.));
#570=DIRECTION('center_axis',(0.,0.,1.));
#571=DIRECTION('ref_axis',(-1.,0.,0.));
#572=DIRECTION('center_axis',(0.,0.,-1.));
#573=DIRECTION('ref_axis',(-1.,0.,0.));
#574=DIRECTION('center_axis',(0.,0.,-1.));
#575=DIRECTION('ref_axis',(-1.,0.,0.));
#576=DIRECTION('center_axis',(0.,0.,1.));
#577=DIRECTION('ref_axis',(-1.,0.,0.));
#578=DIRECTION('center_axis',(0.,0.,1.));
#579=DIRECTION('ref_axis',(-1.,0.,0.));
#580=DIRECTION('center_axis',(0.,0.,1.));
#581=DIRECTION('ref_axis',(-1.,0.,0.));
#582=DIRECTION('center_axis',(1.,0.,0.));
#583=DIRECTION('ref_axis',(0.,1.,0.));
#584=DIRECTION('',(-1.,0.,0.));
#585=DIRECTION('center_axis',(1.,0.,0.));
#586=DIRECTION('ref_axis',(0.,1.,0.));
#587=DIRECTION('',(1.,0.,0.));
#588=DIRECTION('center_axis',(-1.,0.,0.));
#589=DIRECTION('ref_axis',(0.,1.,0.));
#590=DIRECTION('center_axis',(-1.,0.,0.));
#591=DIRECTION('ref_axis',(0.,1.,0.));
#592=DIRECTION('center_axis',(1.,0.,0.));
#593=DIRECTION('ref_axis',(0.,1.,0.));
#594=DIRECTION('',(1.,0.,0.));
#595=DIRECTION('center_axis',(0.,0.,-1.));
#596=DIRECTION('ref_axis',(-1.,0.,0.));
#597=DIRECTION('',(0.,0.,1.));
#598=DIRECTION('',(0.,0.,1.));
#599=DIRECTION('center_axis',(0.,0.,1.));
#600=DIRECTION('ref_axis',(-1.,0.,0.));
#601=DIRECTION('center_axis',(0.,0.,1.));
#602=DIRECTION('ref_axis',(-1.,0.,0.));
#603=DIRECTION('',(0.,0.,-1.));
#604=DIRECTION('center_axis',(1.,0.,0.));
#605=DIRECTION('ref_axis',(0.,1.,0.));
#606=DIRECTION('',(0.,1.,0.));
#607=DIRECTION('',(0.,1.,0.));
#608=DIRECTION('center_axis',(0.,0.,1.));
#609=DIRECTION('ref_axis',(-1.,0.,0.));
#610=DIRECTION('center_axis',(0.,0.,1.));
#611=DIRECTION('ref_axis',(-1.,0.,0.));
#612=DIRECTION('center_axis',(0.,0.,1.));
#613=DIRECTION('ref_axis',(-1.,0.,0.));
#614=DIRECTION('center_axis',(0.,0.,1.));
#615=DIRECTION('ref_axis',(-1.,0.,0.));
#616=DIRECTION('center_axis',(0.,0.,-1.));
#617=DIRECTION('ref_axis',(-1.,0.,0.));
#618=DIRECTION('',(0.,0.,-1.));
#619=DIRECTION('center_axis',(0.,0.,-1.));
#620=DIRECTION('ref_axis',(-1.,0.,0.));
#621=DIRECTION('',(0.,0.,-1.));
#622=DIRECTION('center_axis',(0.,0.,-1.));
#623=DIRECTION('ref_axis',(-1.,0.,0.));
#624=DIRECTION('',(0.,0.,-1.));
#625=DIRECTION('center_axis',(0.,0.,-1.));
#626=DIRECTION('ref_axis',(-1.,0.,0.));
#627=DIRECTION('',(0.,0.,-1.));
#628=DIRECTION('center_axis',(1.,0.,0.));
#629=DIRECTION('ref_axis',(0.,1.,0.));
#630=CARTESIAN_POINT('',(0.,0.,0.));
#631=CARTESIAN_POINT('Origin',(0.,11.0000001192093,10.9999997616));
#632=CARTESIAN_POINT('',(3.35410157529489,11.0000001192093,7.9999997616));
#633=CARTESIAN_POINT('',(8.26135570549116,8.00000011920929,10.9999998713217));
#634=CARTESIAN_POINT('Ctrl Pts',(3.35410157529489,11.0000001192093,7.9999997616));
#635=CARTESIAN_POINT('Ctrl Pts',(3.51667450189948,10.9504286552715,7.9999997616));
#636=CARTESIAN_POINT('Ctrl Pts',(3.67786069545837,10.8973366035537,8.00122458702153));
#637=CARTESIAN_POINT('Ctrl Pts',(4.45420090525131,10.6225396489917,8.01581713037526));
#638=CARTESIAN_POINT('Ctrl Pts',(5.04444778911259,10.3534281364839,8.05307701700663));
#639=CARTESIAN_POINT('Ctrl Pts',(6.1358513144305,9.74634579148138,8.25577675432045));
#640=CARTESIAN_POINT('Ctrl Pts',(6.6373863149086,9.40787578947868,8.41766837678529));
#641=CARTESIAN_POINT('Ctrl Pts',(7.26225579468709,8.91987105296956,8.83010767303075));
#642=CARTESIAN_POINT('Ctrl Pts',(7.44873058077166,8.76429760426669,8.98593557879062));
#643=CARTESIAN_POINT('Ctrl Pts',(7.77205782487438,8.47889236483586,9.35718603261986));
#644=CARTESIAN_POINT('Ctrl Pts',(7.9088608690268,8.34982303346072,9.57323711065273));
#645=CARTESIAN_POINT('Ctrl Pts',(8.0862585584712,8.17764625636856,9.96613712125705));
#646=CARTESIAN_POINT('Ctrl Pts',(8.15294165479792,8.11069889613919,10.1649854438408));
#647=CARTESIAN_POINT('Ctrl Pts',(8.24048095805934,8.02174341853427,10.5813139511401));
#648=CARTESIAN_POINT('Ctrl Pts',(8.26135570549116,8.00000011920929,10.7988467762172));
#649=CARTESIAN_POINT('Ctrl Pts',(8.26135570549116,8.00000011920929,10.9999997616));
#650=CARTESIAN_POINT('',(20.,8.00000011920929,10.9999998713217));
#651=CARTESIAN_POINT('',(0.,8.00000011920929,10.9999998713217));
#652=CARTESIAN_POINT('',(20.,11.0000001192093,7.9999997616));
#653=CARTESIAN_POINT('Origin',(20.,11.0000001192093,10.9999997616));
#654=CARTESIAN_POINT('',(0.,11.0000001192093,7.9999997616));
#655=CARTESIAN_POINT('Origin',(0.,-6.07153212714473E-17,11.0000001639128));
#656=CARTESIAN_POINT('',(8.78919794443885,7.41619845294554,7.9999997616));
#657=CARTESIAN_POINT('Ctrl Pts',(8.26135570549116,8.00000011920929,10.9999998713217));
#658=CARTESIAN_POINT('Ctrl Pts',(8.26135574153386,8.00000008198909,9.9823286544023));
#659=CARTESIAN_POINT('Ctrl Pts',(8.46705273370386,7.79798408637587,8.94379897636678));
#660=CARTESIAN_POINT('Ctrl Pts',(8.78919794443885,7.41619845294554,7.99999976159999));
#661=CARTESIAN_POINT('',(11.5,1.40834381901946E-15,2.9999997616));
#662=CARTESIAN_POINT('Ctrl Pts',(11.5,2.77555756156289E-16,3.00000004470348));
#663=CARTESIAN_POINT('Ctrl Pts',(11.5,1.04417615583546,3.00000004470348));
#664=CARTESIAN_POINT('Ctrl Pts',(11.346233325757,2.133571221828,3.21650242618538));
#665=CARTESIAN_POINT('Ctrl Pts',(10.7940224102144,4.09612186417468,4.04609882026863));
#666=CARTESIAN_POINT('Ctrl Pts',(10.3998722341821,4.97120117274006,4.65749266908067));
#667=CARTESIAN_POINT('Ctrl Pts',(9.6196921761204,6.3521005641177,6.03839206045832));
#668=CARTESIAN_POINT('Ctrl Pts',(9.17240865881676,6.95733719299682,6.91167339237803));
#669=CARTESIAN_POINT('Ctrl Pts',(8.81539758182734,7.38506599694753,7.92388433055384));
#670=CARTESIAN_POINT('Ctrl Pts',(8.802212685788,7.40077422466482,7.96187005407556));
#671=CARTESIAN_POINT('Ctrl Pts',(8.78919794443885,7.41619845294554,7.9999997616));
#672=CARTESIAN_POINT('',(8.78919794443885,-7.41619845294554,7.9999997616));
#673=CARTESIAN_POINT('Ctrl Pts',(11.5,-2.60451382683158E-13,3.00000004470348));
#674=CARTESIAN_POINT('Ctrl Pts',(11.5,-0.199895665849119,3.00000004470349));
#675=CARTESIAN_POINT('Ctrl Pts',(11.4947855158085,-0.399564363297667,3.00749045356291));
#676=CARTESIAN_POINT('Ctrl Pts',(11.4686320802862,-0.90128156940144,3.04514060666371));
#677=CARTESIAN_POINT('Ctrl Pts',(11.4409903637824,-1.20120926276955,3.08495545474922));
#678=CARTESIAN_POINT('Ctrl Pts',(11.2966940318532,-2.30006359135307,3.29431529680083));
#679=CARTESIAN_POINT('Ctrl Pts',(11.110245568965,-3.05852997484697,3.56584982155133));
#680=CARTESIAN_POINT('Ctrl Pts',(10.548282106328,-4.68550054188356,4.4305494760297));
#681=CARTESIAN_POINT('Ctrl Pts',(10.1328546702175,-5.49307801532153,5.09491268626842));
#682=CARTESIAN_POINT('Ctrl Pts',(9.38885064506028,-6.66945523106744,6.50725216637334));
#683=CARTESIAN_POINT('Ctrl Pts',(9.0548800170997,-7.10132927276907,7.22162242368206));
#684=CARTESIAN_POINT('Ctrl Pts',(8.78919794443885,-7.41619845294554,7.9999997616));
#685=CARTESIAN_POINT('',(8.26135570549116,-8.00000011920929,10.9999998713217));
#686=CARTESIAN_POINT('Ctrl Pts',(8.78919794443885,-7.41619845294554,7.9999997616));
#687=CARTESIAN_POINT('Ctrl Pts',(8.46705273370386,-7.79798408637587,8.94379897636678));
#688=CARTESIAN_POINT('Ctrl Pts',(8.26135574153386,-8.00000008198909,9.98232865440231));
#689=CARTESIAN_POINT('Ctrl Pts',(8.26135570549116,-8.00000011920929,10.9999998713217));
#690=CARTESIAN_POINT('',(-8.26135570549116,-8.00000011920929,10.9999998713217));
#691=CARTESIAN_POINT('',(0.,-8.00000011920929,11.0000001639128));
#692=CARTESIAN_POINT('',(-8.78919794443885,-7.41619845294554,7.9999997616));
#693=CARTESIAN_POINT('Ctrl Pts',(-8.26135570549116,-8.00000011920929,10.9999998713217));
#694=CARTESIAN_POINT('Ctrl Pts',(-8.26135574153386,-8.00000008198909,9.98232865440231));
#695=CARTESIAN_POINT('Ctrl Pts',(-8.46705273370386,-7.79798408637587,8.94379897636678));
#696=CARTESIAN_POINT('Ctrl Pts',(-8.78919794443885,-7.41619845294554,7.9999997616));
#697=CARTESIAN_POINT('',(-11.5,-6.07153212714474E-17,2.9999997616));
#698=CARTESIAN_POINT('Ctrl Pts',(-11.5,0.,3.00000004470348));
#699=CARTESIAN_POINT('Ctrl Pts',(-11.5,-1.04417615583546,3.00000004470348));
#700=CARTESIAN_POINT('Ctrl Pts',(-11.346233325757,-2.133571221828,3.21650242618538));
#701=CARTESIAN_POINT('Ctrl Pts',(-10.7940224102144,-4.09612186417468,4.04609882026863));
#702=CARTESIAN_POINT('Ctrl Pts',(-10.3998722341821,-4.97120117274006,4.65749266908067));
#703=CARTESIAN_POINT('Ctrl Pts',(-9.6196921761204,-6.3521005641177,6.03839206045832));
#704=CARTESIAN_POINT('Ctrl Pts',(-9.17240865881676,-6.95733719299682,6.91167339237803));
#705=CARTESIAN_POINT('Ctrl Pts',(-8.81539758182734,-7.38506599694753,7.92388433055384));
#706=CARTESIAN_POINT('Ctrl Pts',(-8.802212685788,-7.40077422466482,7.96187005407556));
#707=CARTESIAN_POINT('Ctrl Pts',(-8.78919794443885,-7.41619845294554,7.9999997616));
#708=CARTESIAN_POINT('',(-8.78919794443885,7.41619845294554,7.9999997616));
#709=CARTESIAN_POINT('Ctrl Pts',(-8.78919794443885,7.41619845294554,7.9999997616));
#710=CARTESIAN_POINT('Ctrl Pts',(-8.802212685788,7.40077422466482,7.96187005407556));
#711=CARTESIAN_POINT('Ctrl Pts',(-8.81539758182734,7.38506599694753,7.92388433055384));
#712=CARTESIAN_POINT('Ctrl Pts',(-9.17240865881676,6.95733719299682,6.91167339237803));
#713=CARTESIAN_POINT('Ctrl Pts',(-9.6196921761204,6.3521005641177,6.03839206045832));
#714=CARTESIAN_POINT('Ctrl Pts',(-10.3998722341821,4.97120117274006,4.65749266908067));
#715=CARTESIAN_POINT('Ctrl Pts',(-10.7940224102144,4.09612186417468,4.04609882026863));
#716=CARTESIAN_POINT('Ctrl Pts',(-11.346233325757,2.133571221828,3.21650242618538));
#717=CARTESIAN_POINT('Ctrl Pts',(-11.5,1.04417615583547,3.00000004470348));
#718=CARTESIAN_POINT('Ctrl Pts',(-11.5,1.11022302462516E-15,3.00000004470348));
#719=CARTESIAN_POINT('',(-8.26135570549116,8.00000011920929,10.9999998713217));
#720=CARTESIAN_POINT('Ctrl Pts',(-8.78919794443885,7.41619845294554,7.9999997616));
#721=CARTESIAN_POINT('Ctrl Pts',(-8.46705273370386,7.79798408637587,8.94379897636678));
#722=CARTESIAN_POINT('Ctrl Pts',(-8.26135574153386,8.00000008198909,9.98232865440231));
#723=CARTESIAN_POINT('Ctrl Pts',(-8.26135570549116,8.00000011920929,10.9999998713217));
#724=CARTESIAN_POINT('',(-21.,8.00000011920929,10.9999998713217));
#725=CARTESIAN_POINT('',(0.,8.00000011920929,10.9999998713217));
#726=CARTESIAN_POINT('',(-21.,-8.00000011920929,10.9999998713217));
#727=CARTESIAN_POINT('Origin',(-21.,-6.07153212714473E-17,11.0000001639128));
#728=CARTESIAN_POINT('',(0.,-8.00000011920929,10.9999998713217));
#729=CARTESIAN_POINT('',(20.,-8.00000011920929,10.9999998713217));
#730=CARTESIAN_POINT('',(0.,-8.00000011920929,10.9999998713217));
#731=CARTESIAN_POINT('Origin',(20.,-6.07153212714473E-17,11.0000001639128));
#732=CARTESIAN_POINT('Origin',(0.,11.0000001192093,10.9999997616));
#733=CARTESIAN_POINT('',(-21.,9.38083151964686,8.47447149088295));
#734=CARTESIAN_POINT('Origin',(-21.,11.0000001192093,10.9999997616));
#735=CARTESIAN_POINT('',(-3.35410157529489,11.0000001192093,7.9999997616));
#736=CARTESIAN_POINT('Ctrl Pts',(-8.26135570549116,8.00000011920929,10.9999997616));
#737=CARTESIAN_POINT('Ctrl Pts',(-8.26135571261537,8.00000011185234,10.7988467762172));
#738=CARTESIAN_POINT('Ctrl Pts',(-8.24048095805934,8.02174341853427,10.5813139511401));
#739=CARTESIAN_POINT('Ctrl Pts',(-8.15294165479792,8.11069889613919,10.1649854438408));
#740=CARTESIAN_POINT('Ctrl Pts',(-8.0862585584712,8.17764625636856,9.96613712125705));
#741=CARTESIAN_POINT('Ctrl Pts',(-7.9088608690268,8.34982303346072,9.57323711065273));
#742=CARTESIAN_POINT('Ctrl Pts',(-7.77205782487438,8.47889236483586,9.35718603261986));
#743=CARTESIAN_POINT('Ctrl Pts',(-7.44873058077166,8.76429760426669,8.98593557879062));
#744=CARTESIAN_POINT('Ctrl Pts',(-7.26225579468709,8.91987105296956,8.83010767303075));
#745=CARTESIAN_POINT('Ctrl Pts',(-6.6373863149086,9.40787578947868,8.41766837678529));
#746=CARTESIAN_POINT('Ctrl Pts',(-6.1358513144305,9.74634579148138,8.25577675432045));
#747=CARTESIAN_POINT('Ctrl Pts',(-5.04444778911259,10.3534281364839,8.05307701700663));
#748=CARTESIAN_POINT('Ctrl Pts',(-4.45420090525131,10.6225396489917,8.01581713037526));
#749=CARTESIAN_POINT('Ctrl Pts',(-3.67786069545837,10.8973366035537,8.00122458702153));
#750=CARTESIAN_POINT('Ctrl Pts',(-3.51667450189948,10.9504286552715,7.9999997616));
#751=CARTESIAN_POINT('Ctrl Pts',(-3.35410157529489,11.0000001192093,7.9999997616));
#752=CARTESIAN_POINT('',(-20.199009811805,11.0000001192093,7.9999997616));
#753=CARTESIAN_POINT('',(0.,11.0000001192093,7.9999997616));
#754=CARTESIAN_POINT('Ctrl Pts',(-20.199009811805,11.0000001192093,7.9999997616));
#755=CARTESIAN_POINT('Ctrl Pts',(-20.399781781296,10.6313278521425,7.9999997616));
#756=CARTESIAN_POINT('Ctrl Pts',(-20.60454067052,10.2287633412714,8.07214048210347));
#757=CARTESIAN_POINT('Ctrl Pts',(-20.8606121280873,9.6885100161834,8.29612038549474));
#758=CARTESIAN_POINT('Ctrl Pts',(-20.9332169368853,9.53033258705977,8.37862325320422));
#759=CARTESIAN_POINT('Ctrl Pts',(-21.,9.38083151964686,8.47447149088295));
#760=CARTESIAN_POINT('Origin',(0.,0.,7.9999997616));
#761=CARTESIAN_POINT('',(20.,5.36865882564009,7.9999997616));
#762=CARTESIAN_POINT('',(20.,0.,7.9999997616));
#763=CARTESIAN_POINT('',(22.3646484974362,5.36865882564008,7.9999997616));
#764=CARTESIAN_POINT('',(20.,5.36865882564009,7.9999997616));
#765=CARTESIAN_POINT('Origin',(0.,0.,7.9999997616));
#766=CARTESIAN_POINT('Origin',(0.,0.,7.9999997616));
#767=CARTESIAN_POINT('',(-12.3,14.,7.9999997616));
#768=CARTESIAN_POINT('Origin',(-14.,14.,7.9999997616));
#769=CARTESIAN_POINT('',(15.7,14.,7.9999997616));
#770=CARTESIAN_POINT('Origin',(14.,14.,7.9999997616));
#771=CARTESIAN_POINT('Origin',(0.,-11.0000001192093,10.9999997616));
#772=CARTESIAN_POINT('',(20.,-11.0000001192093,7.9999997616));
#773=CARTESIAN_POINT('Origin',(20.,-11.0000001192093,10.9999997616));
#774=CARTESIAN_POINT('',(3.35410157529489,-11.0000001192093,7.9999997616));
#775=CARTESIAN_POINT('Ctrl Pts',(8.26135570549116,-8.00000011920929,10.9999997616));
#776=CARTESIAN_POINT('Ctrl Pts',(8.26135571261537,-8.00000011185234,10.7988467762172));
#777=CARTESIAN_POINT('Ctrl Pts',(8.24048095805934,-8.02174341853427,10.5813139511401));
#778=CARTESIAN_POINT('Ctrl Pts',(8.15294165479792,-8.11069889613919,10.1649854438408));
#779=CARTESIAN_POINT('Ctrl Pts',(8.0862585584712,-8.17764625636856,9.96613712125705));
#780=CARTESIAN_POINT('Ctrl Pts',(7.9088608690268,-8.34982303346072,9.57323711065273));
#781=CARTESIAN_POINT('Ctrl Pts',(7.77205782487438,-8.47889236483586,9.35718603261986));
#782=CARTESIAN_POINT('Ctrl Pts',(7.44873058077166,-8.76429760426669,8.98593557879062));
#783=CARTESIAN_POINT('Ctrl Pts',(7.26225579468709,-8.91987105296956,8.83010767303075));
#784=CARTESIAN_POINT('Ctrl Pts',(6.6373863149086,-9.40787578947868,8.41766837678529));
#785=CARTESIAN_POINT('Ctrl Pts',(6.1358513144305,-9.74634579148138,8.25577675432045));
#786=CARTESIAN_POINT('Ctrl Pts',(5.04444778911259,-10.3534281364839,8.05307701700663));
#787=CARTESIAN_POINT('Ctrl Pts',(4.45420090525131,-10.6225396489917,8.01581713037526));
#788=CARTESIAN_POINT('Ctrl Pts',(3.67786069545837,-10.8973366035537,8.00122458702153));
#789=CARTESIAN_POINT('Ctrl Pts',(3.51667450189948,-10.9504286552715,7.9999997616));
#790=CARTESIAN_POINT('Ctrl Pts',(3.35410157529489,-11.0000001192093,7.9999997616));
#791=CARTESIAN_POINT('',(0.,-11.0000001192093,7.9999997616));
#792=CARTESIAN_POINT('Origin',(0.,-11.0000001192093,10.9999997616));
#793=CARTESIAN_POINT('',(-20.199009811805,-11.0000001192093,7.9999997616));
#794=CARTESIAN_POINT('',(-21.,-9.38083151964686,8.47447149088295));
#795=CARTESIAN_POINT('Ctrl Pts',(-21.,-9.38083151964686,8.47447149088295));
#796=CARTESIAN_POINT('Ctrl Pts',(-20.9332169368853,-9.53033258705976,8.37862325320422));
#797=CARTESIAN_POINT('Ctrl Pts',(-20.8606121280873,-9.6885100161834,8.29612038549474));
#798=CARTESIAN_POINT('Ctrl Pts',(-20.60454067052,-10.2287633412713,8.07214048210347));
#799=CARTESIAN_POINT('Ctrl Pts',(-20.399781781296,-10.6313278521425,7.9999997616));
#800=CARTESIAN_POINT('Ctrl Pts',(-20.199009811805,-11.0000001192093,7.9999997616));
#801=CARTESIAN_POINT('',(-3.35410157529489,-11.0000001192093,7.9999997616));
#802=CARTESIAN_POINT('',(0.,-11.0000001192093,7.9999997616));
#803=CARTESIAN_POINT('Ctrl Pts',(-3.35410157529489,-11.0000001192093,7.9999997616));
#804=CARTESIAN_POINT('Ctrl Pts',(-3.51667450189948,-10.9504286552715,7.9999997616));
#805=CARTESIAN_POINT('Ctrl Pts',(-3.67786069545837,-10.8973366035537,8.00122458702153));
#806=CARTESIAN_POINT('Ctrl Pts',(-4.45420090525131,-10.6225396489917,8.01581713037526));
#807=CARTESIAN_POINT('Ctrl Pts',(-5.04444778911259,-10.3534281364839,8.05307701700663));
#808=CARTESIAN_POINT('Ctrl Pts',(-6.1358513144305,-9.74634579148138,8.25577675432045));
#809=CARTESIAN_POINT('Ctrl Pts',(-6.6373863149086,-9.40787578947868,8.41766837678529));
#810=CARTESIAN_POINT('Ctrl Pts',(-7.26225579468709,-8.91987105296956,8.83010767303075));
#811=CARTESIAN_POINT('Ctrl Pts',(-7.44873058077166,-8.76429760426669,8.98593557879062));
#812=CARTESIAN_POINT('Ctrl Pts',(-7.77205782487438,-8.47889236483586,9.35718603261986));
#813=CARTESIAN_POINT('Ctrl Pts',(-7.9088608690268,-8.34982303346072,9.57323711065273));
#814=CARTESIAN_POINT('Ctrl Pts',(-8.0862585584712,-8.17764625636856,9.96613712125705));
#815=CARTESIAN_POINT('Ctrl Pts',(-8.15294165479792,-8.11069889613919,10.1649854438408));
#816=CARTESIAN_POINT('Ctrl Pts',(-8.24048095805934,-8.02174341853427,10.5813139511401));
#817=CARTESIAN_POINT('Ctrl Pts',(-8.26135570549116,-8.00000011920929,10.7988467762172));
#818=CARTESIAN_POINT('Ctrl Pts',(-8.26135570549116,-8.00000011920929,10.9999997616));
#819=CARTESIAN_POINT('Origin',(-21.,-11.0000001192093,10.9999997616));
#820=CARTESIAN_POINT('Origin',(0.,0.,7.9999997616));
#821=CARTESIAN_POINT('Origin',(0.,0.,7.9999997616));
#822=CARTESIAN_POINT('',(22.3646484974362,-5.36865882564008,7.9999997616));
#823=CARTESIAN_POINT('Origin',(0.,0.,7.9999997616));
#824=CARTESIAN_POINT('',(20.,-5.36865882564008,7.9999997616));
#825=CARTESIAN_POINT('',(20.,-5.36865882564008,7.9999997616));
#826=CARTESIAN_POINT('',(20.,0.,7.9999997616));
#827=CARTESIAN_POINT('',(15.7,-14.,7.9999997616));
#828=CARTESIAN_POINT('Origin',(14.,-14.,7.9999997616));
#829=CARTESIAN_POINT('',(-12.3,-14.,7.9999997616));
#830=CARTESIAN_POINT('Origin',(-14.,-14.,7.9999997616));
#831=CARTESIAN_POINT('Origin',(0.,0.,2.9999997616));
#832=CARTESIAN_POINT('',(23.,2.22044604925031E-15,2.9999997616));
#833=CARTESIAN_POINT('Origin',(0.,0.,2.9999997616));
#834=CARTESIAN_POINT('',(-12.3,-14.,2.9999997616));
#835=CARTESIAN_POINT('Origin',(-14.,-14.,2.9999997616));
#836=CARTESIAN_POINT('Origin',(0.,0.,2.9999997616));
#837=CARTESIAN_POINT('Origin',(0.,0.,2.9999997616));
#838=CARTESIAN_POINT('',(15.7,-14.,2.9999997616));
#839=CARTESIAN_POINT('Origin',(14.,-14.,2.9999997616));
#840=CARTESIAN_POINT('',(-12.3,14.,2.9999997616));
#841=CARTESIAN_POINT('Origin',(-14.,14.,2.9999997616));
#842=CARTESIAN_POINT('',(15.7,14.,2.9999997616));
#843=CARTESIAN_POINT('Origin',(14.,14.,2.9999997616));
#844=CARTESIAN_POINT('Origin',(20.,1.66533453693773E-15,11.0000001639128));
#845=CARTESIAN_POINT('',(-21.,-5.36865882564008,7.9999997616));
#846=CARTESIAN_POINT('',(-22.3646484974362,-5.36865882564008,7.9999997616));
#847=CARTESIAN_POINT('',(20.,-5.36865882564008,7.9999997616));
#848=CARTESIAN_POINT('',(-21.,-6.15,11.0000001639128));
#849=CARTESIAN_POINT('Origin',(-21.,1.66533453693773E-15,11.0000001639128));
#850=CARTESIAN_POINT('',(20.,-6.15,11.0000001639128));
#851=CARTESIAN_POINT('',(20.,-6.15,11.0000001639128));
#852=CARTESIAN_POINT('Origin',(20.,1.66533453693773E-15,11.0000001639128));
#853=CARTESIAN_POINT('',(23.,-1.13078806286317E-15,4.85000016391278));
#854=CARTESIAN_POINT('Ctrl Pts',(23.,5.55111512312578E-16,4.85000016391278));
#855=CARTESIAN_POINT('Ctrl Pts',(23.,-0.776223762160574,4.85000016391278));
#856=CARTESIAN_POINT('Ctrl Pts',(22.9567852416244,-1.60164835372427,5.00589885020708));
#857=CARTESIAN_POINT('Ctrl Pts',(22.8006792434528,-3.115813240915,5.63471962370127));
#858=CARTESIAN_POINT('Ctrl Pts',(22.6898623069574,-3.80485125467053,6.10743800998877));
#859=CARTESIAN_POINT('Ctrl Pts',(22.5108376291959,-4.73462152500075,7.03720828031899));
#860=CARTESIAN_POINT('Ctrl Pts',(22.4323813236305,-5.08649881160853,7.49505954612355));
#861=CARTESIAN_POINT('Ctrl Pts',(22.3646484974362,-5.36865882564008,7.9999997616));
#862=CARTESIAN_POINT('Ctrl Pts',(22.3646484974362,5.36865882564008,7.9999997616));
#863=CARTESIAN_POINT('Ctrl Pts',(22.4323813236305,5.08649881160853,7.49505954612355));
#864=CARTESIAN_POINT('Ctrl Pts',(22.5108376291959,4.73462152500075,7.03720828031899));
#865=CARTESIAN_POINT('Ctrl Pts',(22.6898623069574,3.80485125467053,6.10743800998877));
#866=CARTESIAN_POINT('Ctrl Pts',(22.8006792434528,3.11581324091501,5.63471962370127));
#867=CARTESIAN_POINT('Ctrl Pts',(22.9567852416244,1.60164835372428,5.00589885020708));
#868=CARTESIAN_POINT('Ctrl Pts',(23.,0.776223762160574,4.85000016391278));
#869=CARTESIAN_POINT('Ctrl Pts',(23.,1.38777878078145E-16,4.85000016391278));
#870=CARTESIAN_POINT('Origin',(20.,1.66533453693773E-15,11.0000001639128));
#871=CARTESIAN_POINT('',(-21.,5.36865882564009,7.9999997616));
#872=CARTESIAN_POINT('Origin',(-21.,1.66533453693773E-15,11.0000001639128));
#873=CARTESIAN_POINT('',(-22.3646484974362,5.36865882564008,7.9999997616));
#874=CARTESIAN_POINT('',(20.,5.36865882564009,7.9999997616));
#875=CARTESIAN_POINT('Ctrl Pts',(-22.3646484974362,-5.36865882564008,7.9999997616));
#876=CARTESIAN_POINT('Ctrl Pts',(-22.4323813236305,-5.08649881160853,7.49505954612355));
#877=CARTESIAN_POINT('Ctrl Pts',(-22.5108376291959,-4.73462152500075,7.03720828031899));
#878=CARTESIAN_POINT('Ctrl Pts',(-22.6898623069574,-3.80485125467053,6.10743800998877));
#879=CARTESIAN_POINT('Ctrl Pts',(-22.8006792434528,-3.115813240915,5.63471962370127));
#880=CARTESIAN_POINT('Ctrl Pts',(-22.9567852416244,-1.60164835372427,5.00589885020708));
#881=CARTESIAN_POINT('Ctrl Pts',(-23.,-0.776223762160573,4.85000016391278));
#882=CARTESIAN_POINT('Ctrl Pts',(-23.,0.776223762160574,4.85000016391278));
#883=CARTESIAN_POINT('Ctrl Pts',(-22.9567852416244,1.60164835372428,5.00589885020708));
#884=CARTESIAN_POINT('Ctrl Pts',(-22.8006792434528,3.11581324091501,5.63471962370127));
#885=CARTESIAN_POINT('Ctrl Pts',(-22.6898623069574,3.80485125467053,6.10743800998877));
#886=CARTESIAN_POINT('Ctrl Pts',(-22.5108376291959,4.73462152500075,7.03720828031899));
#887=CARTESIAN_POINT('Ctrl Pts',(-22.4323813236305,5.08649881160853,7.49505954612355));
#888=CARTESIAN_POINT('Ctrl Pts',(-22.3646484974362,5.36865882564008,7.9999997616));
#889=CARTESIAN_POINT('Origin',(0.,0.,7.9999997616));
#890=CARTESIAN_POINT('',(23.,-2.81668763803891E-15,7.9999997616));
#891=CARTESIAN_POINT('',(-21.,-9.38083151964686,7.9999997616));
#892=CARTESIAN_POINT('',(-21.,-9.38083151964686,7.9999997616));
#893=CARTESIAN_POINT('Origin',(0.,0.,7.9999997616));
#894=CARTESIAN_POINT('',(-21.,9.38083151964686,7.9999997616));
#895=CARTESIAN_POINT('Origin',(0.,0.,7.9999997616));
#896=CARTESIAN_POINT('',(-21.,9.38083151964686,7.9999997616));
#897=CARTESIAN_POINT('Origin',(-21.,0.,11.0000001639128));
#898=CARTESIAN_POINT('',(-21.,0.,7.9999997616));
#899=CARTESIAN_POINT('',(-21.,0.,7.9999997616));
#900=CARTESIAN_POINT('Origin',(0.,0.,7.9999997616));
#901=CARTESIAN_POINT('Origin',(0.,0.,7.9999997616));
#902=CARTESIAN_POINT('Origin',(0.,0.,2.9999997616));
#903=CARTESIAN_POINT('Origin',(0.,0.,2.9999997616));
#904=CARTESIAN_POINT('Origin',(-14.,-14.,7.9999997616));
#905=CARTESIAN_POINT('',(-12.3,-14.,7.9999997616));
#906=CARTESIAN_POINT('Origin',(-14.,14.,7.9999997616));
#907=CARTESIAN_POINT('',(-12.3,14.,7.9999997616));
#908=CARTESIAN_POINT('Origin',(14.,-14.,7.9999997616));
#909=CARTESIAN_POINT('',(15.7,-14.,7.9999997616));
#910=CARTESIAN_POINT('Origin',(14.,14.,7.9999997616));
#911=CARTESIAN_POINT('',(15.7,14.,7.9999997616));
#912=CARTESIAN_POINT('Origin',(20.,0.,11.0000001639128));
#913=UNCERTAINTY_MEASURE_WITH_UNIT(LENGTH_MEASURE(0.01),#917,
'DISTANCE_ACCURACY_VALUE',
'Maximum model space distance between geometric entities at asserted c
onnectivities');
#914=UNCERTAINTY_MEASURE_WITH_UNIT(LENGTH_MEASURE(0.01),#917,
'DISTANCE_ACCURACY_VALUE',
'Maximum model space distance between geometric entities at asserted c
onnectivities');
#915=(
GEOMETRIC_REPRESENTATION_CONTEXT(3)
GLOBAL_UNCERTAINTY_ASSIGNED_CONTEXT((#913))
GLOBAL_UNIT_ASSIGNED_CONTEXT((#917,#918,#919))
REPRESENTATION_CONTEXT('','3D')
);
#916=(
GEOMETRIC_REPRESENTATION_CONTEXT(3)
GLOBAL_UNCERTAINTY_ASSIGNED_CONTEXT((#914))
GLOBAL_UNIT_ASSIGNED_CONTEXT((#917,#918,#919))
REPRESENTATION_CONTEXT('','3D')
);
#917=(
LENGTH_UNIT()
NAMED_UNIT(*)
SI_UNIT(.MILLI.,.METRE.)
);
#918=(
NAMED_UNIT(*)
PLANE_ANGLE_UNIT()
SI_UNIT($,.RADIAN.)
);
#919=(
NAMED_UNIT(*)
SI_UNIT($,.STERADIAN.)
SOLID_ANGLE_UNIT()
);
#920=SHAPE_DEFINITION_REPRESENTATION(#921,#922);
#921=PRODUCT_DEFINITION_SHAPE('',$,#924);
#922=SHAPE_REPRESENTATION('',(#461),#915);
#923=PRODUCT_DEFINITION_CONTEXT('part definition',#928,'design');
#924=PRODUCT_DEFINITION('POC','POC v17',#925,#923);
#925=PRODUCT_DEFINITION_FORMATION('',$,#930);
#926=PRODUCT_RELATED_PRODUCT_CATEGORY('POC v17','POC v17',(#930));
#927=APPLICATION_PROTOCOL_DEFINITION('international standard',
'automotive_design',2009,#928);
#928=APPLICATION_CONTEXT(
'Core Data for Automotive Mechanical Design Process');
#929=PRODUCT_CONTEXT('part definition',#928,'mechanical');
#930=PRODUCT('POC','POC v17',$,(#929));
#931=PRESENTATION_STYLE_ASSIGNMENT((#932));
#932=SURFACE_STYLE_USAGE(.BOTH.,#933);
#933=SURFACE_SIDE_STYLE('',(#934));
#934=SURFACE_STYLE_FILL_AREA(#935);
#935=FILL_AREA_STYLE('Steel - Satin',(#936));
#936=FILL_AREA_STYLE_COLOUR('Steel - Satin',#937);
#937=COLOUR_RGB('Steel - Satin',0.627450980392157,0.627450980392157,0.627450980392157);
ENDSEC;
END-ISO-10303-21;
